name C:\Users\u0101727\Documents\MyRepositories\upper-imu-dc\Results\main_tracking\Case_51\kinematics.mot
datacolumns 10
datarows 23
range 1.37000000 1.59000000
endheader 
time	clav_prot	clav_elev	scapula_abduction	scapula_elevation	scapula_upward_rot	scapula_winging	plane_elv	shoulder_elv	axial_rot	
          1.37000000	        -20.29756945	         14.15033931	         -4.96204269	          6.04843252	         28.84798306	         -0.81910203	          7.11536847	          5.22797519	         26.80228572	
          1.38000000	        -20.34551781	         14.40884656	         -4.94650281	          6.16757172	         29.15995852	         -0.87984343	          8.26853709	          4.98668003	         26.03387138	
          1.39000000	        -20.38867191	         14.64822925	         -4.92952253	          6.27816131	         29.44914873	         -0.93513887	          9.42615931	          4.76212245	         25.24527249	
          1.40000000	        -20.42829935	         14.86805719	         -4.91318717	          6.37974285	         29.71561729	         -0.98529856	         10.57945283	          4.55458007	         24.44453516	
          1.41000000	        -20.46567045	         15.06800210	         -4.89953336	          6.47190452	         29.95957067	         -1.03066484	         11.71945795	          4.36417321	         23.64008744	
          1.42000000	        -20.50194437	         15.24786981	         -4.89034499	          6.55431066	         30.18136482	         -1.07160323	         12.83724615	          4.19088324	         22.84041620	
          1.43000000	        -20.53808295	         15.40764619	         -4.88699553	          6.62673630	         30.38152830	         -1.10849510	         13.92417184	          4.03457327	         22.05368817	
          1.44000000	        -20.57478629	         15.54755279	         -4.89032936	          6.68910555	         30.56079505	         -1.14173118	         14.97214529	          3.89500886	         21.28736791	
          1.45000000	        -20.61243730	         15.66810621	         -4.90056059	          6.74153159	         30.72013968	         -1.17170543	         15.97388912	          3.77187308	         20.54790058	
          1.46000000	        -20.65104168	         15.77017110	         -4.91716329	          6.78435297	         30.86080911	         -1.19880966	         16.92314373	          3.66476877	         19.84051219	
          1.47000000	        -20.69015972	         15.85499360	         -4.93874545	          6.81815851	         30.98434151	         -1.22342885	         17.81480375	          3.57320280	         19.16914278	
          1.48000000	        -20.72884587	         15.92420774	         -4.96295136	          6.84379908	         31.09255081	         -1.24593169	         18.64498327	          3.49655263	         18.53648379	
          1.49000000	        -20.76568398	         15.97979770	         -4.98658848	          6.86237827	         31.18743102	         -1.26664514	         19.41102634	          3.43402199	         17.94408406	
          1.50000000	        -20.79914276	         16.02393531	         -5.00641446	          6.87516329	         31.27091454	         -1.28580902	         20.11142703	          3.38458027	         17.39248262	
          1.51000000	        -21.49646240	         16.11199246	         -6.32801047	          6.88328590	         31.34417659	         -1.30406299	         20.74652242	          3.34712711	         16.88080032	
          1.52000000	        -20.82532059	         16.08213817	         -4.97435433	          6.88714219	         31.40888781	         -1.32025169	         21.31650298	          3.32009296	         16.40815282	
          1.53000000	        -21.72478763	         16.17292511	         -6.69704394	          6.88849564	         31.46495430	         -1.33987166	         21.82201612	          3.30165365	         15.97401148	
          1.54000000	        -21.94027655	         16.20254982	         -7.08438041	          6.88687597	         31.51222183	         -1.35870618	         22.26686726	          3.29283820	         15.57486619	
          1.55000000	        -22.11562860	         16.22111680	         -7.39665217	          6.88157339	         31.54952186	         -1.37597419	         22.65392415	          3.29369203	         15.20846132	
          1.56000000	        -22.25930698	         16.22878767	         -7.65060572	          6.87236281	         31.57636827	         -1.39116785	         22.98719352	          3.30345990	         14.87183478	
          1.57000000	        -22.37632351	         16.22605766	         -7.85601698	          6.85930699	         31.59294569	         -1.40404103	         23.27131432	          3.32110315	         14.56175573	
          1.58000000	        -22.47062942	         16.21378688	         -8.02040743	          6.84267537	         31.59995502	         -1.41455844	         23.51138140	          3.34546856	         14.27492872	
          1.59000000	        -22.54575991	         16.19310508	         -8.15036239	          6.82287553	         31.59844245	         -1.42284131	         23.71279768	          3.37536323	         14.00811155	
